<?xml version="1.0" encoding="utf-8"?>
<!-- Generator: Adobe Illustrator 27.5.0, SVG Export Plug-In . SVG Version: 6.00 Build 0)  -->
<svg version="1.1" id="Layer_1" xmlns="http://www.w3.org/2000/svg" xmlns:xlink="http://www.w3.org/1999/xlink" x="0px" y="0px"
	 viewBox="0 0 4000 4000" style="enable-background:new 0 0 4000 4000;" xml:space="preserve">
<g>
	<rect x="0" style="fill-rule:evenodd;clip-rule:evenodd;fill:#FFFFFF;" width="3999.999" height="4000"/>
	<path style="fill-rule:evenodd;clip-rule:evenodd;" d="M2444.049,2487.514v536.106l-464.291,268.073l-464.291-268.063v-347.806
		l-169.46-97.833l0.004,543.473l633.739,365.886c211.256-121.97,422.513-243.927,633.759-365.886l-0.005-731.801
		c-429.472-247.951-858.955-495.906-1288.416-743.881V843.1l695.148-401.358L2715.381,843.1v685.256
		c-172.875-99.813-345.747-199.621-518.622-299.425v195.677c229.409,132.448,458.722,264.855,688.097,397.285V745.266
		l-169.475-97.848l-695.154-401.352l-864.62,499.185v998.381C1585.092,1991.598,2014.573,2239.557,2444.049,2487.514"/>
	<path style="fill-rule:evenodd;clip-rule:evenodd;" d="M2674.908,2354.224c-429.473-247.96-858.944-495.925-1288.416-743.876
		l-0.005-731.801c211.247-121.97,422.504-243.927,633.759-365.897l633.737,365.892l0.005,543.476l-169.46-97.837V976.38
		l-464.3-268.063L1555.936,976.38l0.01,536.112c429.477,247.96,858.958,495.921,1288.439,743.886v998.376l-864.618,499.185
		l-695.156-401.348l-169.482-97.847l0.009-1076.626c229.375,132.425,458.683,264.832,688.095,397.275v195.685
		c-172.875-99.807-345.75-199.615-518.622-299.423v685.251l695.145,401.358l695.144-401.353L2674.908,2354.224z"/>
</g>
</svg>
